PathFileType	4	(X/Y/Z)	pose_F01_0-95.trc
DataRate	CameraRate	NumFrames	NumMarkers	Units	OrigDataRate	OrigDataStartFrame	OrigNumFrames
30	30	5	21	m	30	23	95
Frame#	Time	CHip			RHip			RKnee			RAnkle			RBigToe			RSmallToe			RHeel			LHip			LKnee			LAnkle			LBigToe			LSmallToe			LHeel			Neck			Nose			RShoulder			RElbow			RWrist			LShoulder			LElbow			LWrist			
		X1	Y1	Z1	X2	Y2	Z2	X3	Y3	Z3	X4	Y4	Z4	X5	Y5	Z5	X6	Y6	Z6	X7	Y7	Z7	X8	Y8	Z8	X9	Y9	Z9	X10	Y10	Z10	X11	Y11	Z11	X12	Y12	Z12	X13	Y13	Z13	X14	Y14	Z14	X15	Y15	Z15	X16	Y16	Z16	X17	Y17	Z17	X18	Y18	Z18	X19	Y19	Z19	X20	Y20	Z20	X21	Y21	Z21	
23	0.7666666666666667	-0.20586275667309345	1.8390335691270807	-0.3390229267213533	-0.2071653284081475	1.8388584014609257	-0.28585424651401864	-0.20313089057000547	1.7197453136827745	-0.29984934342374886	-0.20466106271743453	1.6076322585327871	-0.3311779151391277	-0.2126472907110913	1.5704566808915228	-0.4250081109274011	-0.2037326485663693	1.5766733873679302	-0.4077824586540383	-0.1936259757401356	1.5997208971214527	-0.3146676327356893	-0.20492954025513244	1.8402573968181304	-0.3954080568077849	-0.19724036176223586	1.72018265478484	-0.39142613158855394	-0.19379713772504759	1.5998957710815243	-0.3846248421991608	-0.22152535512867494	1.5711816104092378	-0.40169613566253226	-0.21187989814999933	1.5707438245839014	-0.3889089123304653	-0.1880937709217907	1.593834779818683	-0.3813546693053965	-0.19550036658481615	1.9818530074849225	-0.3988172035640666	-0.21366795601949437	2.029955011233951	-0.32512649273388805	-0.19661916180671854	1.9802927300760387	-0.32045161068200856	-0.2001181511805808	1.9135159564722581	-0.26122253636455495	-0.2260663204064543	1.8999988014224332	-0.2429857301563247	-0.19388250784609712	1.9830842396239128	-0.47165061684542936	-0.19867944342259067	1.8988148703978178	-0.47483460935267013	-0.20768092847860276	1.8276762454462336	-0.4537550949109246
24	0.8	-0.20622611790769285	1.8354574509028923	-0.3384362995270647	-0.20574492909620495	1.835580505455758	-0.2874192104667297	-0.20230277803843283	1.7169982293122246	-0.3050495744171308	-0.20466106271743453	1.6076322585327871	-0.3311779151391277	-0.2126472907110913	1.5704566808915228	-0.4250081109274011	-0.2037326485663693	1.5766733873679302	-0.4077824586540383	-0.1936259757401356	1.5997208971214527	-0.3146676327356893	-0.20536288619632842	1.8367707910818325	-0.3947364311178465	-0.1947484995196554	1.7179331624974954	-0.3896511317993216	-0.19316583942539778	1.6018316039233496	-0.38106915505147837	-0.22152535512867494	1.5711816104092378	-0.40169613566253226	-0.2111893815060888	1.5723108413362088	-0.3854760700973748	-0.18903927410853097	1.5965575961055396	-0.3803777530658906	-0.1962691326023142	1.9827610129160962	-0.39354252764399894	-0.2126505922297319	2.029646619935523	-0.3218540720555954	-0.19284991584054978	1.9811280474732338	-0.3248598653498845	-0.1973638223979783	1.9145341550475454	-0.2644264680082422	-0.2268078981503134	1.9422473405523284	-0.2624727687554086	-0.19781636140975717	1.9832965603446129	-0.46697689208220544	-0.20104760437803657	1.8961551792453806	-0.46337209329268075	-0.20883023761794214	1.822110943262721	-0.4473901476138607
25	0.8333333333333334	-0.20651202611983321	1.8357000580799334	-0.3383448102487691	-0.20587183695675534	1.834545304803579	-0.287246762458852	-0.20181159776117863	1.7164914516384777	-0.30102069812362636	-0.20466106271743453	1.6076322585327871	-0.3311779151391277	-0.2126472907110913	1.5704566808915228	-0.4250081109274011	-0.2037326485663693	1.5766733873679302	-0.4077824586540383	-0.1936259757401356	1.5997208971214527	-0.3146676327356893	-0.20651160180977704	1.835468808351306	-0.3889552156986674	-0.19770322861403355	1.718007035856795	-0.39057189825533334	-0.1939144358313596	1.6004247891719974	-0.38465522508569244	-0.22152535512867494	1.5711816104092378	-0.40169613566253226	-0.21123969646571827	1.5727226430921195	-0.3853023806088272	-0.18942256961357717	1.59553281480014	-0.38454094669301103	-0.19730672274556235	1.982639437039295	-0.3966896343832744	-0.21277454245659505	2.0270167705135558	-0.3212009854780356	-2.1863681549345624	1.9194659187756031	2.036429876393498	-0.20641005018704212	1.9202544077232397	-0.25531686801948333	-0.2256422275179002	1.975443555572145	-0.26876613559628193	-0.2008304937802465	1.9828922645370743	-0.4593647439671751	-0.20764696763184082	1.898335478538965	-0.46014164132109775	-0.2130985942912538	1.821913383772738	-0.4427768599644291
26	0.8666666666666667	-0.20640965819345541	1.8368584236776138	-0.3386342240010265	-0.205725071961598	1.835654051956037	-0.2876015990498409	-0.20027366180301162	1.71522485759313	-0.29794369576200164	-0.20466106271743453	1.6076322585327871	-0.3311779151391277	-0.2126472907110913	1.5704566808915228	-0.4250081109274011	-0.2037326485663693	1.5766733873679302	-0.4077824586540383	-0.1936259757401356	1.5997208971214527	-0.3146676327356893	-0.20843738993373645	1.835441488522844	-0.38680874889315425	-0.19868000056971455	1.7178556231411954	-0.38505870088590244	-0.19399745853535946	1.6005185342724908	-0.38474808794843113	-0.22152535512867494	1.5711816104092378	-0.40169613566253226	-0.21224446127884938	1.572928506227566	-0.3799472798085314	-0.19069248335028013	1.5961558904760997	-0.3883149436254296	-0.19907815424773123	1.9859755545711175	-0.39501723574282777	-0.212704698551367	2.0274670521928484	-0.32119364101575787	-2.187531634458641	1.9189843428508933	2.0377727943585007	-0.20970250245982477	1.9282866029411716	-0.25259920275454495	-0.21600080657794332	1.983828928518188	-0.2796654129165114	-0.20064449246537175	1.9851158671855105	-0.4592994401736022	-0.2095801090570078	1.900867846999033	-0.4583311228588823	-0.21526717923311411	1.8272387369410164	-0.432373939133512
27	0.9	-0.2068328188328582	1.8306993701302516	-0.3463998476752506	-0.2068105290766347	1.8304268888960278	-0.29007166078956004	-0.20190041208763898	1.7104364573849855	-0.2952867860465492	-0.20466106271743453	1.6076322585327871	-0.3311779151391277	-0.2126472907110913	1.5704566808915228	-0.4250081109274011	-0.2037326485663693	1.5766733873679302	-0.4077824586540383	-0.1936259757401356	1.5997208971214527	-0.3146676327356893	-0.2058909852608368	1.8292390168677206	-0.39349654132163514	-0.20160745352162637	1.7123599632626505	-0.3853601463805864	-0.19374221915852735	1.5990816922254205	-0.3851010728807104	-0.22152535512867494	1.5711816104092378	-0.40169613566253226	-0.21191929674384413	1.5714441791023013	-0.3802659505846179	-0.1885341349430652	1.5947224645357976	-0.3907689351257029	-0.19915847843636086	1.9835729066978705	-0.39457682646615866	-0.21372329783493607	2.027344429005187	-0.32441389665632375	-0.19488562697300132	1.9819233650383314	-0.3316325822894466	-0.2133439815543005	1.926152595443232	-0.2477281176400539	-2.233986668323213	1.9238489160293681	2.125854180791238	-0.2025480784482941	1.9873810216098549	-0.457709392231392	-0.2135472996059994	1.9052760330778167	-0.47235010065801347	-0.2229202556919234	1.8332889131199068	-0.40651331036630123
